PathFileType	4	(X/Y/Z)	RBDS002\RBDS002runT35.trc
DataRate	CameraRate	NumFrames	NumMarkers	Units	OrigDataRate	OrigDataStartFrame	OrigNumFrames
150.000000	150.000000	4	33	mm	150.000000	3375	4500
Frame#	Time	L.ASIS			L.Heel.Bottom			L.Heel.Lateral			L.Heel.Top			L.Iliac.Crest			L.MT1			L.MT5			L.PSIS			L.Shank.Bottom.Lateral			L.Shank.Bottom.Medial			L.Shank.Top.Lateral			L.Shank.Top.Medial			L.Thigh.Bottom.Lateral			L.Thigh.Bottom.Medial			L.Thigh.Top.Lateral			L.Thigh.Top.Medial			R.ASIS			R.ASY			R.Heel.Bottom			R.Heel.Lateral			R.Heel.Top			R.Iliac.Crest			R.MT1			R.MT5			R.PSIS			R.Shank.Bottom.Lateral			R.Shank.Bottom.Medial			R.Shank.Top.Lateral			R.Shank.Top.Medial			R.Thigh.Bottom.Lateral			R.Thigh.Bottom.Medial			R.Thigh.Top.Lateral			R.Thigh.Top.Medial			
		X1	Y1	Z1	X2	Y2	Z2	X3	Y3	Z3	X4	Y4	Z4	X5	Y5	Z5	X6	Y6	Z6	X7	Y7	Z7	X8	Y8	Z8	X9	Y9	Z9	X10	Y10	Z10	X11	Y11	Z11	X12	Y12	Z12	X13	Y13	Z13	X14	Y14	Z14	X15	Y15	Z15	X16	Y16	Z16	X17	Y17	Z17	X18	Y18	Z18	X19	Y19	Z19	X20	Y20	Z20	X21	Y21	Z21	X22	Y22	Z22	X23	Y23	Z23	X24	Y24	Z24	X25	Y25	Z25	X26	Y26	Z26	X27	Y27	Z27	X28	Y28	Z28	X29	Y29	Z29	X30	Y30	Z30	X31	Y31	Z31	X32	Y32	Z32	X33	Y33	Z33	

3376	22.5	2126.27728531694	983.914307066956	948.3421390248844	1655.304592475533	84.81574486556295	1051.840295612499	1689.835118068651	85.34167841799139	1006.244673963566	1678.981176243681	130.2662612005159	1048.092997147894	2031.093005473729	1062.498786152026	902.5545845011194	1878.577529166551	51.75555079396289	1099.414408168738	1845.222648996083	40.17145522825474	985.6643307021325	1947.68322941922	1027.5185087038	1029.062927829122	1793.326948483829	180.2324431974865	990.628328064166	1758.388376582744	209.3969562340446	1014.63346864274	1832.596015095438	244.9594378909225	961.9700634357728	1799.92045308718	278.4768478100045	987.9390613133871	2006.832150260043	548.7559307709606	916.1363582840413	1950.920407169136	549.1812420541231	964.3370561766892	1989.252871442592	656.8343963325898	900.1207816752037	1938.936566817312	657.9582215497493	947.3014437035168	2138.955220601117	971.427873920821	1163.79749782827	1968.23367278222	260.4347509143674	1140.335699442618	1839.084814849349	404.1147545841574	1107.723144429915	1860.578156691845	394.9342454153478	1149.739050062795	1889.821411063829	412.9917062020514	1107.685994808239	2057.108328743067	1051.037467462178	1218.413576131917	1946.216229404685	194.648117940365	1106.271678709306	1923.403316773304	237.0552501056708	1207.643186150486	1953.365687972639	1018.703177208828	1113.356123598468	1993.020370677603	408.4262917111677	1174.202717329432	1978.253578990808	443.4761582370509	1134.852371982274	2059.708671624951	453.6270007138354	1186.649103227966	2044.874324631905	486.3177896476053	1146.359393889662	2248.523252053207	600.4835719066416	1204.484655134399	2206.469736359187	576.7496746585899	1149.15018969653	2170.552969323523	677.1539430218672	1226.926989736384	2128.498555870754	649.5004515327147	1177.872701700381	
3377	22.50666666666667	2127.556852074958	987.2347139930189	948.1776065127934	1634.97135298161	93.77472947656796	1051.660376821473	1669.408215301873	92.4569083822891	1005.99037396882	1660.253733378209	138.2296675417808	1047.375969025679	2035.116730049759	1067.475363225953	902.6234847293223	1855.961249005229	51.43595809544573	1099.941031072546	1822.058932780986	40.93494984207258	986.0686865520942	1949.18315807318	1032.370146262623	1027.241645237614	1773.948746123683	186.5456519274908	990.0818097797155	1739.380012031121	215.6906677721949	1014.609150927107	1813.472636377542	251.2737696758377	961.759228082663	1781.137263622663	284.7570888694283	988.1493903064085	1993.781186143017	554.2705263962795	916.9512045048662	1937.600208957179	557.0101298381358	964.7203290434409	1980.579380546091	662.883323612596	900.5333811287462	1929.890992424617	666.1018369147422	947.2452459412519	2139.989425574621	977.6418427940498	1163.164860850142	1994.35713790699	249.6046111104128	1139.369264217077	1854.78922047961	383.8220362564547	1108.341374833423	1876.9819376948	375.8303848505752	1150.124055514366	1904.851044989692	396.5072471540016	1108.178200770548	2057.706868507788	1057.218362619975	1217.887436957087	1977.22493485588	182.593106200257	1104.979407220609	1951.514673334736	222.4020187048242	1206.667063784542	1953.936287029537	1024.34280940793	1112.351829880803	2008.864817993854	398.8670095694754	1173.791784585247	1991.486162473418	432.9499891579573	1134.648769959922	2072.372273399211	448.4889531744029	1186.070208607324	2055.085968751634	480.25724735555	1145.994025997991	2254.688094282465	610.8782485344386	1203.269300620969	2212.520423394813	586.3745396249593	1148.024818695462	2175.677581572862	686.1151081280806	1226.432099308323	2133.938698322098	658.2434559084634	1177.131668781659	
3378	22.51333333333334	2129.151388299531	990.7524803401835	948.1202985845994	1615.78126024273	103.8407715897119	1051.471561151622	1649.964428212242	100.4464538328602	1005.720361117723	1642.865212036651	147.0386050562807	1046.604039521687	2039.99381469098	1072.544249700022	902.5699618224535	1833.69310396074	51.0724440223194	1100.441418798847	1799.206445432836	41.78936310787387	986.4102931940976	1950.979208806708	1037.44868759903	1025.306555925536	1755.51109220765	193.4104191879954	989.3323236626533	1721.361933311483	222.4428273633555	1014.506874642499	1795.15161153711	258.2253939871262	961.3715990189668	1763.209547697999	291.5736869840278	988.3276903707341	1981.13949407057	560.5226957855758	917.6779327467457	1924.961797976282	565.6648963413852	965.214172124162	1972.372949165512	669.5115671059476	900.8720729166238	1921.559007634131	674.8904048502228	947.2967080904114	2141.27052394326	984.1846261601069	1162.500440754146	2021.252534708073	239.0355239520998	1138.35158799128	1871.943225627498	363.0510872095651	1108.666037106702	1894.694634422425	356.3203572116606	1150.295260143184	1921.055556168606	379.4498118761148	1108.47371204471	2058.610508218428	1063.728353508913	1217.355517015034	2009.072429505651	171.124989142093	1103.614905524812	1980.555446563946	208.1679772378614	1205.523366225895	1954.723526257897	1030.256134729079	1111.322871451722	2025.271896128508	388.9393575514158	1173.262125996303	2005.31292301392	421.8182004785722	1134.302979496206	2085.191293587788	442.864241062736	1185.39052509928	2065.504947040355	473.4709302216093	1145.505703744881	2260.085082140949	621.1296906232435	1202.110183275719	2217.824106513824	596.0763399014699	1146.914711089993	2180.430592535218	695.2128799551947	1225.988534989322	2138.884800887417	667.3084865049005	1176.441747317005	
3379	22.52	2131.039195159236	994.381187918387	948.2107572565806	1597.913041288244	114.9521041334277	1051.275456524225	1631.638403557878	109.272615913956	1005.441185716931	1626.965036763827	156.6048775601848	1045.780932091203	2045.626994332014	1077.626258483668	902.3858634738467	1811.83552927687	50.7322588708224	1100.886677632739	1776.713083273361	42.77499201478462	986.6820986908205	1953.049298963567	1042.705295294538	1023.303699286843	1738.102772820555	200.7222962792854	988.3730126195662	1704.434860833305	229.541519689665	1014.331640749389	1777.716484024977	265.712540634848	960.8000358413135	1746.231194376044	298.8197782001452	988.4775442397498	1968.941912697061	567.4266710683744	918.2271670508759	1913.045973020616	574.9999038917272	965.7434044147059	1964.625004094807	676.6363272914593	901.0939109706994	1913.963902533873	684.186577971591	947.4396111290529	2142.737976935041	990.9972183834576	1161.870513356807	2048.909004920418	228.855766753311	1137.288015603078	1890.623479817997	341.9967836749098	1108.691204843221	1913.800543011846	336.5894930914298	1150.234564306701	1938.514840545683	361.9774391401601	1108.545228145545	2059.688551131345	1070.494608286449	1216.845942519393	2041.706972424683	160.3848311248984	1102.200540363456	2010.514855981911	194.5111783834972	1204.24279834045	1955.720042709732	1036.379576608575	1110.269630378475	2042.296541673457	378.71807132627	1172.614700170509	2019.832363863479	410.1670531283195	1133.816224007987	2098.239780372622	436.765710983288	1184.609179980282	2076.244357415542	465.9842847535358	1144.892054939737	2264.750485812177	631.1562653695468	1201.014530980831	2222.36666258179	605.7011916268688	1145.904574609868	2184.794226527894	704.3683105275491	1225.577826688161	2143.290736898903	676.5351051621776	1175.858492119509	
